<svg id="Layer_1" data-name="Layer 1" xmlns="http://www.w3.org/2000/svg" viewBox="0 0 360.5 358.53"><defs><style>.cls-1{fill:#f2f2f2;stroke:#000;stroke-miterlimit:10;}</style></defs><path class="cls-1" d="M.5,358V.5H216s143.5-1,144,178.75S217,358,217,358H149s-5.5,1-7.5-9-1-160-1-160-2-15,12-16,69,1,69,1,11-1.47,11.5,5.26S231.5,276,231.5,276s5,8,14,4,32-24.47,32.5-100.74S240.5,72,240.5,72H84.5s-6,1-7,7-1,35-1,35,0,3,7,5,166,1,166,1,17,8,16,25-12,24-12,24l-114-1A13.41,13.41,0,0,0,129,179.26C127.5,189,127.5,351,127.5,351s-2,7.06-10.5,7S.5,358,.5,358Z"/></svg>